HIERARCHY
ROOT Hips
{
	OFFSET 0.000000 103.266502 0.000000
	CHANNELS 6 Xposition Yposition Zposition Xrotation Yrotation Zrotation 
	JOINT Spine
	{
		OFFSET -0.002400 12.777504 0.315300
		CHANNELS 3 Xrotation Yrotation Zrotation
		JOINT Spine1
		{
			OFFSET -0.002067 5.816869 0.032633
			CHANNELS 3 Xrotation Yrotation Zrotation
			JOINT Spine1_split
			{
				OFFSET -0.002067 5.816869 0.032633
				CHANNELS 3 Xrotation Yrotation Zrotation
				JOINT Spine2
				{
					OFFSET -0.002067 5.816869 0.032633
					CHANNELS 3 Xrotation Yrotation Zrotation
					JOINT Neck
					{
						OFFSET -0.003700 21.199493 -0.826900
						CHANNELS 3 Xrotation Yrotation Zrotation
						JOINT Head
						{
							OFFSET 0.000000 20.442200 4.834800
							CHANNELS 3 Xrotation Yrotation Zrotation
							JOINT HeadTop_End
							{
								OFFSET 0.000000 34.668396 4.968400
								CHANNELS 3 Xrotation Yrotation Zrotation
								End Site
								{
									OFFSET 0.000000 0.000000 0.000000
								}
							}
						}
					}
					JOINT LeftShoulder
					{
						OFFSET 3.288150 8.794197 -1.372250
						CHANNELS 3 Xrotation Yrotation Zrotation
						JOINT LeftShoulder_split
						{
							OFFSET 3.288150 8.794197 -1.372250
							CHANNELS 3 Xrotation Yrotation Zrotation
							JOINT LeftArm
							{
								OFFSET 11.953299 -2.279007 -0.146200
								CHANNELS 3 Xrotation Yrotation Zrotation
								JOINT LeftForeArm
								{
									OFFSET 18.448900 0.000000 0.000000
									CHANNELS 3 Xrotation Yrotation Zrotation
									JOINT LeftHand
									{
										OFFSET 29.527798 0.000000 0.000000
										CHANNELS 3 Xrotation Yrotation Zrotation
										JOINT LeftHandThumb1
										{
											OFFSET 10.739754 -2.369614 9.225399
											CHANNELS 3 Xrotation Yrotation Zrotation
											JOINT LeftHandThumb2
											{
												OFFSET 4.926170 -2.844131 2.844125
												CHANNELS 3 Xrotation Yrotation Zrotation
												JOINT LeftHandThumb3
												{
													OFFSET 4.614891 -2.664413 2.664409
													CHANNELS 3 Xrotation Yrotation Zrotation
													JOINT LeftHandThumb4
													{
														OFFSET 4.432465 -2.559082 2.559083
														CHANNELS 3 Xrotation Yrotation Zrotation
														End Site
														{
															OFFSET 0.000000 0.000000 0.000000
														}
													}
												}
											}
										}
										JOINT LeftHandIndex1
										{
											OFFSET 26.467674 0.187653 6.405298
											CHANNELS 3 Xrotation Yrotation Zrotation
											JOINT LeftHandIndex2
											{
												OFFSET 8.792900 0.000000 0.000000
												CHANNELS 3 Xrotation Yrotation Zrotation
												JOINT LeftHandIndex3
												{
													OFFSET 10.075203 0.000000 0.000000
													CHANNELS 3 Xrotation Yrotation Zrotation
													End Site
													{
														OFFSET 0.000000 0.000000 0.000000
													}
												}
											}
										}
										JOINT LeftHandMiddle1
										{
											OFFSET 25.764404 0.000000 0.000000
											CHANNELS 3 Xrotation Yrotation Zrotation
											JOINT LeftHandMiddle2
											{
												OFFSET 9.393974 0.000000 0.000000
												CHANNELS 3 Xrotation Yrotation Zrotation
												JOINT LeftHandMiddle3
												{
													OFFSET 10.771950 0.000000 0.000000
													CHANNELS 3 Xrotation Yrotation Zrotation
													End Site
													{
														OFFSET 0.000000 0.000000 0.000000
													}
												}
											}
										}
										JOINT LeftHandRing1
										{
											OFFSET 24.660927 0.144547 -6.225808
											CHANNELS 3 Xrotation Yrotation Zrotation
											JOINT LeftHandRing2
											{
												OFFSET 9.393799 0.000000 0.000000
												CHANNELS 3 Xrotation Yrotation Zrotation
												JOINT LeftHandRing3
												{
													OFFSET 9.928497 0.000000 0.000000
													CHANNELS 3 Xrotation Yrotation Zrotation
													End Site
													{
														OFFSET 0.000000 0.000000 0.000000
													}
												}
											}
										}
										JOINT LeftHandPinky1
										{
											OFFSET 23.655350 0.125290 -12.815412
											CHANNELS 3 Xrotation Yrotation Zrotation
											JOINT LeftHandPinky2
											{
												OFFSET 8.425102 0.000000 0.000000
												CHANNELS 3 Xrotation Yrotation Zrotation
												JOINT LeftHandPinky3
												{
													OFFSET 8.147003 0.000000 0.000000
													CHANNELS 3 Xrotation Yrotation Zrotation
													End Site
													{
														OFFSET 0.000000 0.000000 0.000000
													}
												}
											}
										}
									}
								}
							}
						}
					}
					JOINT RightShoulder
					{
						OFFSET -3.249400 8.794197 -1.372250
						CHANNELS 3 Xrotation Yrotation Zrotation
						JOINT RightShoulder_split
						{
							OFFSET -3.249400 8.794197 -1.372250
							CHANNELS 3 Xrotation Yrotation Zrotation
							JOINT RightArm
							{
								OFFSET -11.953299 -2.279007 -0.146200
								CHANNELS 3 Xrotation Yrotation Zrotation
								JOINT RightForeArm
								{
									OFFSET -18.448900 0.000000 0.000000
									CHANNELS 3 Xrotation Yrotation Zrotation
									JOINT RightHand
									{
										OFFSET -29.527802 0.000000 0.000000
										CHANNELS 3 Xrotation Yrotation Zrotation
										JOINT RightHandThumb1
										{
											OFFSET -10.739754 -2.369614 9.225399
											CHANNELS 3 Xrotation Yrotation Zrotation
											JOINT RightHandThumb2
											{
												OFFSET -4.926170 -2.844131 2.844125
												CHANNELS 3 Xrotation Yrotation Zrotation
												JOINT RightHandThumb3
												{
													OFFSET -4.614891 -2.664413 2.664409
													CHANNELS 3 Xrotation Yrotation Zrotation
													JOINT RightHandThumb4
													{
														OFFSET -4.432465 -2.559082 2.559083
														CHANNELS 3 Xrotation Yrotation Zrotation
														End Site
														{
															OFFSET 0.000000 0.000000 0.000000
														}
													}
												}
											}
										}
										JOINT RightHandIndex1
										{
											OFFSET -26.467674 0.187653 6.405298
											CHANNELS 3 Xrotation Yrotation Zrotation
											JOINT RightHandIndex2
											{
												OFFSET -8.792900 0.000000 0.000000
												CHANNELS 3 Xrotation Yrotation Zrotation
												JOINT RightHandIndex3
												{
													OFFSET -10.075203 0.000000 0.000000
													CHANNELS 3 Xrotation Yrotation Zrotation
													End Site
													{
														OFFSET 0.000000 0.000000 0.000000
													}
												}
											}
										}
										JOINT RightHandMiddle1
										{
											OFFSET -25.764404 0.000000 0.000000
											CHANNELS 3 Xrotation Yrotation Zrotation
											JOINT RightHandMiddle2
											{
												OFFSET -9.393974 0.000000 0.000000
												CHANNELS 3 Xrotation Yrotation Zrotation
												JOINT RightHandMiddle3
												{
													OFFSET -10.771950 0.000000 0.000000
													CHANNELS 3 Xrotation Yrotation Zrotation
													End Site
													{
														OFFSET 0.000000 0.000000 0.000000
													}
												}
											}
										}
										JOINT RightHandRing1
										{
											OFFSET -24.660927 0.144547 -6.225808
											CHANNELS 3 Xrotation Yrotation Zrotation
											JOINT RightHandRing2
											{
												OFFSET -9.393799 0.000000 0.000000
												CHANNELS 3 Xrotation Yrotation Zrotation
												JOINT RightHandRing3
												{
													OFFSET -9.928497 0.000000 0.000000
													CHANNELS 3 Xrotation Yrotation Zrotation
													End Site
													{
														OFFSET 0.000000 0.000000 0.000000
													}
												}
											}
										}
										JOINT RightHandPinky1
										{
											OFFSET -23.655350 0.125290 -12.815412
											CHANNELS 3 Xrotation Yrotation Zrotation
											JOINT RightHandPinky2
											{
												OFFSET -8.425102 0.000000 0.000000
												CHANNELS 3 Xrotation Yrotation Zrotation
												JOINT RightHandPinky3
												{
													OFFSET -8.147003 0.000000 0.000000
													CHANNELS 3 Xrotation Yrotation Zrotation
													End Site
													{
														OFFSET 0.000000 0.000000 0.000000
													}
												}
											}
										}
									}
								}
							}
						}
					}
				}
			}
		}
	}
	JOINT LeftUpLeg
	{
		OFFSET 11.394100 -6.187798 -0.413800
		CHANNELS 3 Xrotation Yrotation Zrotation
		JOINT LeftLeg
		{
			OFFSET 0.430247 -32.302673 3.732800
			CHANNELS 3 Xrotation Yrotation Zrotation
			JOINT LeftFoot
			{
				OFFSET -0.430247 -48.264931 -6.423300
				CHANNELS 3 Xrotation Yrotation Zrotation
				JOINT LeftToeBase
				{
					OFFSET 4.230900 -16.068199 23.438400
					CHANNELS 3 Xrotation Yrotation Zrotation
					JOINT LeftToe_End
					{
						OFFSET 4.510700 0.695400 19.974600
						CHANNELS 3 Xrotation Yrotation Zrotation
						End Site
						{
							OFFSET 0.000000 0.000000 0.000000
						}
					}
				}
			}
		}
	}
	JOINT RightUpLeg
	{
		OFFSET -11.333700 -6.187798 -0.413800
		CHANNELS 3 Xrotation Yrotation Zrotation
		JOINT RightLeg
		{
			OFFSET -0.430392 -32.302628 3.733000
			CHANNELS 3 Xrotation Yrotation Zrotation
			JOINT RightFoot
			{
				OFFSET 0.430392 -48.264973 -6.423500
				CHANNELS 3 Xrotation Yrotation Zrotation
				JOINT RightToeBase
				{
					OFFSET -4.230900 -16.068199 23.438400
					CHANNELS 3 Xrotation Yrotation Zrotation
					JOINT RightToe_End
					{
						OFFSET -4.510700 0.695400 19.974600
						CHANNELS 3 Xrotation Yrotation Zrotation
						End Site
						{
							OFFSET 0.000000 0.000000 0.000000
						}
					}
				}
			}
		}
	}
}
MOTION
Frames: 4
Frame Time: 0.016667
-25.442776 87.969872 -11.563580 35.996753 4.275151 -3.697094 11.173623 1.815632 0.597588 9.606816 1.909022 0.899773 0.000000 0.000000 0.000000 9.603337 2.011866 0.811204 -0.524620 -2.137135 -0.972091 -33.188231 -13.301680 4.013189 0.000000 -0.000000 0.000000 1.414453 -22.723525 -8.784363 0.000000 0.000000 0.000000 11.762091 -10.125583 -53.585399 0.000003 -69.152237 -0.000016 9.634484 -7.078051 51.536479 -3.236116 1.418159 8.402918 5.654936 12.269276 1.647786 -0.143287 6.321524 3.004572 0.000000 0.000000 0.000004 -2.869265 -11.236235 -14.304750 0.189450 1.607169 -13.444105 -0.000001 -0.000000 -0.000002 -1.015599 -2.322574 -17.138015 0.372015 2.236747 -18.883779 0.000002 -0.000002 -0.000000 0.425062 2.386072 -20.199021 0.525206 2.642136 -22.481655 -0.000004 0.000000 0.000001 2.908288 9.324894 -19.277227 0.542570 -1.387838 -23.214309 -0.000002 -0.000000 -0.000000 3.076676 26.719386 7.630344 0.000000 0.000000 0.000000 -0.858340 44.777901 17.984933 -0.000017 15.067920 -0.000000 -12.088575 -18.720857 2.445799 11.401659 -6.367865 -1.590883 -8.836339 -28.068816 -6.744440 -1.218070 0.026847 -2.106277 -0.000001 -0.000000 -0.000000 1.584812 -10.189945 8.836249 0.110147 -1.235141 10.190473 -0.000000 -0.000001 -0.000001 0.067139 -0.965886 7.951941 0.067141 -0.965869 7.951939 0.000002 0.000000 0.000000 -0.761385 3.643576 10.438909 0.104639 -1.204201 9.932214 -0.000001 0.000001 0.000001 -2.759441 8.024694 17.655264 0.308093 -2.050678 17.086507 0.000001 0.000000 0.000002 -60.446184 -21.735310 23.770602 30.599931 10.678464 -2.756855 5.989083 6.931149 -27.642436 -1.113719 0.000005 -0.000004 -0.000000 -0.000001 -0.000000 -70.653697 0.866661 -17.391385 49.848387 -7.115026 -1.149509 -10.910173 -2.533384 17.881159 -0.000034 -0.000001 -0.000001 -0.000000 0.000000 0.000000 
-24.997656 87.455963 -11.631786 37.458827 4.127945 -3.636862 11.362575 1.988311 0.641618 9.817427 2.025245 0.983093 0.000000 0.000000 0.000000 9.811148 2.152151 0.886993 -0.715565 -2.246420 -1.135933 -34.116624 -13.747777 3.784624 -0.000000 -0.000000 0.000000 1.416200 -22.973073 -8.880212 0.000000 0.000000 0.000000 11.192781 -9.120346 -53.018773 0.000005 -70.505843 0.000006 10.038161 -7.077227 52.367071 -3.374855 1.231308 8.584190 5.793798 12.624814 1.716458 -0.109072 6.711002 3.041323 0.000000 -0.000000 -0.000002 -2.849390 -11.834705 -13.679892 0.167871 1.514193 -12.652674 0.000000 -0.000001 -0.000000 -1.107500 -2.724903 -16.827237 0.358589 2.197123 -18.536785 0.000001 -0.000000 0.000000 0.422368 2.378714 -20.134009 0.523083 2.637005 -22.435577 0.000003 0.000001 0.000001 2.892623 9.303082 -19.220782 0.541224 -1.391018 -23.185711 -0.000002 -0.000000 0.000001 3.187589 27.214289 7.729329 0.000000 0.000000 0.000000 -2.835471 44.048406 16.782886 0.000010 15.523326 0.000003 -11.553917 -18.245679 1.205173 11.420377 -6.347034 -1.613742 -8.885706 -28.126222 -6.728605 -1.266717 0.123335 -2.096321 0.000001 -0.000001 -0.000000 1.580420 -10.229628 8.766656 0.108818 -1.227721 10.128402 0.000002 0.000001 -0.000002 0.064976 -0.950269 7.822433 0.064960 -0.950266 7.822418 0.000000 -0.000000 -0.000001 -0.755241 3.690473 10.276189 0.101184 -1.184322 9.766745 0.000001 -0.000000 -0.000002 -2.755521 8.099320 17.520890 0.303164 -2.034588 16.948039 -0.000002 -0.000001 0.000003 -63.844579 -20.853363 23.474291 32.611671 10.881526 -2.850907 5.392880 5.540830 -27.177743 -1.399285 0.000001 -0.000010 0.000000 -0.000001 0.000000 -72.815130 1.250450 -17.635690 50.602542 -6.898239 -1.452017 -10.910391 -2.594664 18.329779 0.000043 -0.000002 0.000002 -0.000000 0.000000 0.000000 
-24.514629 86.972527 -11.637154 39.065820 4.224774 -3.447674 11.451719 2.127124 0.650055 9.969271 2.124029 1.135354 0.000000 0.000000 0.000000 9.956443 2.298935 1.031305 -0.838440 -2.418143 -1.228872 -35.049047 -14.115562 3.169132 -0.000002 0.000000 -0.000000 1.450527 -23.720935 -8.828585 0.000000 0.000000 0.000000 11.826683 -9.065766 -52.805620 -0.000026 -71.719910 -0.000042 10.805692 -6.917955 53.874924 -3.512168 1.046271 8.763067 5.931029 12.976945 1.783618 -0.075414 7.096622 3.077534 -0.000001 0.000001 0.000001 -2.817153 -12.428204 -13.059489 0.147808 1.421864 -11.869167 0.000003 0.000000 -0.000002 -1.194133 -3.124439 -16.519653 0.345540 2.157836 -18.193256 0.000002 -0.000000 0.000000 0.419684 2.371437 -20.069654 0.520984 2.631933 -22.389949 0.000003 0.000000 -0.000000 2.877109 9.281340 -19.164894 0.539861 -1.394168 -23.157413 -0.000006 0.000000 0.000000 3.294677 27.536630 7.886910 0.000000 0.000000 0.000000 -5.270274 43.242891 15.996344 -0.000018 15.853526 0.000001 -11.364522 -17.432017 -0.170956 11.427818 -6.338776 -1.622784 -8.905287 -28.148955 -6.722371 -1.285941 0.161527 -2.092356 -0.000000 -0.000000 -0.000000 1.578686 -10.245328 8.739126 0.108277 -1.224772 10.103831 -0.000000 -0.000001 0.000001 0.064139 -0.944083 7.771179 0.064118 -0.944058 7.771183 0.000001 -0.000002 0.000000 -0.752770 3.709063 10.211787 0.099852 -1.176470 9.701242 0.000000 0.000000 0.000001 -2.753875 8.128871 17.467708 0.301215 -2.028194 16.893264 -0.000000 0.000000 0.000002 -67.372931 -19.910217 22.983277 34.455067 10.980027 -3.010837 4.946529 4.033829 -26.647804 -1.425590 -0.000004 0.000002 0.000000 0.000001 0.000000 -75.018427 1.694542 -18.269383 51.336129 -6.608190 -1.661895 -10.952238 -2.662106 18.779807 -0.000015 0.000004 -0.000002 0.000000 -0.000000 0.000000 
-23.985306 86.464958 -11.609871 40.693929 4.451017 -3.228724 11.496819 2.211996 0.677654 10.064957 2.170636 1.237804 0.000000 0.000000 0.000000 10.048256 2.372608 1.130299 -0.902491 -2.527068 -1.383378 -35.906578 -14.329187 2.536114 0.000003 -0.000001 -0.000000 1.473620 -24.423857 -8.886953 0.000000 0.000000 0.000000 12.773703 -9.396225 -52.694162 0.000037 -72.757470 -0.000008 11.913178 -6.670316 56.007975 -3.647180 0.864206 8.938402 6.065771 13.323447 1.848962 -0.042523 7.475891 3.112933 0.000002 0.000001 0.000000 -2.773173 -13.012704 -12.447484 0.129304 1.330801 -11.098644 0.000001 -0.000000 -0.000001 -1.275077 -3.518500 -16.217289 0.332931 2.119120 -17.855385 -0.000003 0.000000 0.000001 0.417077 2.364267 -20.006336 0.518931 2.626927 -22.345085 0.000002 0.000000 0.000000 2.861838 9.259782 -19.109969 0.538541 -1.397252 -23.129539 -0.000003 -0.000001 -0.000001 3.339812 27.785954 7.894897 0.000000 0.000000 0.000000 -7.494356 42.668998 15.410847 -0.000007 16.135796 0.000012 -11.314855 -17.019380 -1.634175 11.432231 -6.333868 -1.628205 -8.916923 -28.162530 -6.718632 -1.297451 0.184334 -2.089989 -0.000001 -0.000002 -0.000000 1.577619 -10.254718 8.722659 0.107962 -1.222988 10.089158 -0.000002 0.000000 0.000002 0.063621 -0.940383 7.740553 0.063617 -0.940372 7.740582 -0.000001 -0.000000 -0.000001 -0.751268 3.720130 10.173316 0.099046 -1.171751 9.662129 0.000000 -0.000000 0.000000 -2.752866 8.146508 17.435934 0.300063 -2.024379 16.860527 0.000001 -0.000000 0.000003 -70.987385 -18.717654 22.375157 36.262564 11.082223 -3.052336 4.473671 2.433630 -26.046486 -1.430659 -0.000003 0.000000 -0.000000 -0.000003 -0.000000 -77.231742 2.145801 -19.111487 52.123612 -6.241735 -1.844552 -11.038226 -2.742110 19.250142 -0.000075 -0.000009 -0.000000 0.000000 -0.000000 0.000000 
